# xmcd CD database file
#
# Track frame offsets:
#	150
#	5787
#	18367
#	28125
#	45920
#	57777
#
# Disc length: 858 seconds
#
# Revision: 0
# Processed by: cddbd v1.5.1PL0 Copyright (c) Steve Scherf et al.
# Submitted via: CDex 1.51
#
DISCID=40035806
DTITLE=Various Artist - NUDGE'EM ALL and HOLIDAYS
DYEAR=1998
DGENRE=Rock
TTITLE0=LOSE YOUR TEMPER
TTITLE1=EHY
TTITLE2=DON'T BUG ME
TTITLE3=WILL CHANGE MY MIND
TTITLE4=I'M NOT FREE
TTITLE5=I HAVE NO MONEY
EXTD=YEAR: 1998
EXTT0=
EXTT1=
EXTT2=
EXTT3=
EXTT4=
EXTT5=
PLAYORDER=
